<?xml version="1.0" encoding="UTF-8" standalone="no"?>
<!-- Copyright 2017 mathsisfun.com -->
<svg xmlns="http://www.w3.org/2000/svg" width="299" height="162.3" version="1.1">
<defs>
</defs>
<g transform="matrix(0.5,0,0,0.5,8.39282,454.383)" />
<path d="m 111.4,85.3 c -3.4,6.4 -6.8,12.7 -10.3,19 -3.4,6.1 -7.1,12 -11.1,17.7 -3.9,5.5 -8.3,11 -13.3,15.4 -0.6,0.5 -1.2,1.1 -1.8,1.6 v 15.8 H 112.2 V 83.9 c -0.2,0.5 -0.5,0.9 -0.7,1.4 z" style="opacity:0.68; fill:#19aeff; stroke-width:0.5;" />
<path d="m 59.5,148.4 c -6.4,2.6 -13,4 -19.8,4.9 -0.7,0 -1.5,0.2 -2.2,0.3 v 1.3 h 37.3 v -15.8 c -4.7,3.9 -9.7,7.2 -15.3,9.5 z" style="opacity:0.68; fill:#19aeff; stroke-width:0.5;" />
<path d="m 20.4,154.5 c -6.7,0.2 -13.5,0.2 -20.2,0.3 H 37.5 v -1.3 c -5.7,0.6 -11.4,0.8 -17.1,1 z" style="fill:#bdc9e1; stroke-width:0.5;" />
<path d="m 149,38 c -3.3,0.3 -6.5,1.5 -9.1,3.7 -2.7,2.3 -5.1,4.7 -7.3,7.5 -4.2,5.4 -7.9,11.4 -11.2,17.4 -3.2,5.7 -6.3,11.5 -9.3,17.3 v 70.9 h 37.3 V 37.9 c -0.1,0 -0.2,0 -0.3,0 z" style="opacity:0.68; fill:#19aeff; stroke-width:0.5;" />
<path d="m 177.4,66.2 c -3.5,-6.1 -7.1,-12.3 -11.5,-17.7 -2.2,-2.6 -4.5,-5.3 -7.3,-7.2 -2.6,-1.8 -5.7,-3.5 -9,-3.4 V 154.8 h 37.3 V 83.9 c -3.1,-6 -6.2,-11.9 -9.6,-17.8 z" style="fill:#19aeff; stroke-width:0.5;" />
<path d="m 257.9,153.1 c -6.5,-0.8 -13.1,-2.3 -19.1,-4.9 -5.3,-2.4 -10.3,-5.4 -14.7,-9.2 v 15.8 h 37.3 v -1.3 c -1.2,-0.1 -2.4,-0.2 -3.5,-0.4 z" style="fill:#19aeff; stroke-width:0.5;" />
<path d="m 221.8,136.9 c -5.1,-4.8 -9.6,-10.3 -13.7,-16.1 -4,-5.7 -7.6,-11.6 -11,-17.7 -3.5,-6.2 -6.9,-12.6 -10.2,-18.9 0,0 -0.1,-0.2 -0.1,-0.2 v 70.9 h 37.3 v -15.8 c -0.8,-0.7 -1.6,-1.4 -2.3,-2.1 z" style="fill:#19aeff; stroke-width:0.5;" />
<path d="m 297.7,154.8 c -6.6,0 -13.2,0 -19.8,-0.3 -5.5,-0.2 -11,-0.5 -16.5,-1 v 1.3 h 37.3 c -0.3,0 -0.7,0 -1,0 z" style="fill:#bdc9e1; stroke-width:0.5;" />
<path d="m 0.2,154.8 c 6.7,0 13.5,0 20.2,-0.3 6.4,-0.2 12.9,-0.4 19.3,-1.3 6.8,-0.9 13.4,-2.3 19.8,-4.9 6.4,-2.6 12,-6.5 17.2,-11 5.1,-4.4 9.5,-9.9 13.3,-15.4 4,-5.7 7.7,-11.6 11.1,-17.7 3.5,-6.3 6.9,-12.6 10.3,-19 3.3,-6.3 6.6,-12.5 10,-18.7 3.4,-6 7,-12 11.2,-17.4 2.2,-2.8 4.6,-5.3 7.3,-7.5 2.6,-2.2 5.8,-3.4 9.2,-3.7 3.4,-0.3 6.6,1.5 9.3,3.3 2.8,1.9 5.1,4.6 7.3,7.2 4.4,5.4 8,11.6 11.5,17.7 3.4,5.9 6.5,12 9.7,18 3.3,6.3 6.7,12.7 10.2,18.9 3.4,6.1 7,12 11,17.7 4.1,5.8 8.6,11.3 13.7,16.1 5,4.8 10.8,8.5 17.1,11.2 6,2.7 12.6,4.1 19.1,4.9 6.6,0.8 13.3,1.2 20,1.4 6.6,0.2 13.2,0.2 19.8,0.3 0.3,0 0.7,0 1,0" style="fill:none; stroke:black; stroke-width:0.38; stroke-linecap:round; stroke-linejoin:round;" />
<text x="48.1" y="14.4" style="font-family:Georgia; text-align:center; text-anchor:middle; font-size:16px; font-style:italic; color:black; overflow:visible; fill:#009100; stroke-width:0.5px;">Mean</text>
<g transform="matrix(0.549755,0,0,0.469831,-4.06718,232.624)">
<path d="m 145.5,-490.8 c 7.7,0 17.2,1.7 20.6,9.6 4.2,7.3 1.2,15.6 -0.6,23.1 -1.8,6.8 1.4,14.6 6.3,18.4 -2.1,1.6 -4,6.7 -6.6,2.7 -7.5,-7 -7.9,-18.4 -4.6,-27.5 2.7,-6.9 1.1,-17.2 -7.3,-19.1 -3,-2.2 -13.1,1.4 -9.3,-4 0.5,-1 0.9,-2.1 1.4,-3.1 z" style="color:black; overflow:visible; fill:#9ade00; stroke-width:6.65;" />
<path d="m 145.5,-385.7 c 7.7,0 17.2,-1.7 20.6,-9.6 4.2,-7.3 1.2,-15.6 -0.6,-23.1 -1.8,-6.8 1.4,-14.7 6.3,-18.4 -2.1,-1.6 -4,-6.7 -6.6,-2.7 -7.5,7 -7.9,18.4 -4.6,27.5 2.7,6.9 1.1,17.2 -7.3,19.1 -3,2.2 -13.1,-1.4 -9.3,4 0.5,1 0.9,2.1 1.4,3.1 z" style="color:black; overflow:visible; fill:#9ade00; stroke-width:6.65;" />
<path d="m 171.9,-441.3 c 8.4,-0.1 16.7,-2.5 23.9,-6.8 -6.2,3.7 6.2,-3.8 7.8,-5.5 10.3,-8.3 18.7,-18.5 27.3,-28.4 8.1,-8.2 19.3,-14.9 31.3,-12.7 8.6,0.8 17.3,5.9 19.6,14.7 0,3.6 3.4,11.9 -1.6,12.5 -5.2,2.4 -4.3,-2.1 -4,-6.1 0.4,-7.7 -6.1,-13.7 -13.3,-14.7 -6.5,-1.4 -13.5,-0.7 -19.2,3 6.1,-3.8 -7.1,4.5 -8.6,7.4 -12.8,15.2 -26.5,31 -45.3,38.8 -6.5,2.6 -13.5,4 -20.5,3.8 0.9,-2 1.8,-4.1 2.7,-6 z" style="color:black; overflow:visible; fill:#9ade00; stroke-width:6.65;" />
<path d="m 267.6,-471.5 c 6.6,7.6 12.1,16.6 13.3,26.8 -2,-5 -6.9,4.1 -3.9,-1.7 1.9,-10.6 8.1,-20.3 17.1,-26.3 1.8,1.2 8.8,1.8 4.1,3.8 -8.7,5.7 -13.8,15.5 -15.5,25.6 -3.5,7.8 -10.1,0.6 -9.3,-5.3 -1.8,-7.3 -6.5,-13.4 -11.2,-19.1 1.8,-1.3 3.6,-2.6 5.3,-3.9 z" style="color:black; overflow:visible; fill:#9ade00; stroke-width:6.65;" />
<path d="m 282.8,-471.6 c -0.7,6.4 -0.1,12.8 -1.2,19.2 -1.9,-0.4 -7,2.2 -6.3,-0.7 0.9,-5.8 0.4,-11.7 1,-17.6 2.2,-0.3 4.4,-0.6 6.5,-0.9 z" style="color:black; overflow:visible; fill:#9ade00; stroke-width:6.65;" />
</g>
<text x="161.5" y="148.3" style="font-family:Verdana; font-size:20.8px; fill:white; stroke-width:0.5;">50%</text>
<text x="97.6" y="148.3" style="font-family:Verdana; font-size:20.8px; fill:white; stroke-width:0.5;">50%</text>
<text x="150.7" y="95.4" style="font-family:Georgia; text-align:center; text-anchor:middle; font-size:16px; font-style:italic; color:black; overflow:visible; fill:#005c94; stroke-width:0.5px;">Symmetry</text>
<g transform="matrix(0.448987,-0.007163,0.007975,0.499936,230.723,176.994)">
<path d="m -259.7,-128.4 c 7.9,-8 18.2,-13 28.3,-17.8 18.7,-8.5 39.5,-11.4 59.9,-10 16.4,1 32.8,4.8 47.4,12.3 7.1,4 14.2,8.3 19.5,14.6 -1.8,1.3 -3.5,2.7 -5.3,4 -5.6,-6.4 -13.1,-10.9 -20.6,-14.6 -20.5,-9.4 -43.6,-12 -65.9,-9.7 -18.7,1.8 -36.6,8.9 -52.4,18.9 5.2,-4.1 -3.3,3.1 -5.1,3.5 -1.9,-0.5 -3.9,-0.9 -5.8,-1.4 z" style="color:black; overflow:visible; fill:#005c94; stroke-width:6.65;" />
<path d="m -260.2,-130.4 c 5.9,-3.5 9.6,-9.8 10.9,-16.5 2.2,-0.3 4.4,-0.5 6.6,-0.8 -1.1,7.5 -4.6,15.4 -11.1,19.7 -2.1,-0.8 -4.4,-1.4 -6.4,-2.4 z" style="color:black; overflow:visible; fill:#005c94; stroke-width:6.65;" />
<path d="m -255.3,-133.2 c 10.3,-1.7 20.8,-3.1 31.2,-1.5 -1,2 -2,3.9 -3,5.9 -8.4,-1 -16.9,-0.4 -25.2,1.2 -3.3,0.9 -5.7,1.4 -3.8,-2.4 0.2,-1 0.8,-2.2 0.8,-3.2 z" style="color:black; overflow:visible; fill:#005c94; stroke-width:6.65;" />
<path d="m -110.7,-149.7 c 1.9,8.6 6.8,16.2 12.1,23.1 -1.8,1.3 -3.6,2.5 -5.4,3.8 -5.9,-7.3 -10.9,-15.4 -13.2,-24.6 2.2,-0.7 4.3,-1.8 6.5,-2.3 z" style="color:black; overflow:visible; fill:#005c94; stroke-width:6.65;" />
<path d="m -126.4,-131.4 c 8.2,-0.4 16.7,-1.3 24.7,1.1 -1.2,1.9 -2.3,3.7 -3.5,5.6 -7.6,-1.7 -15.6,-1.2 -23.3,-0.4 0.8,-2.1 1.5,-4.1 2.3,-6.2 z" style="color:black; overflow:visible; fill:#005c94; stroke-width:6.65;" />
</g>
<g transform="translate(-75.1472,-48.4316)" />
<text x="48.1" y="29.7" style="font-family:Georgia; text-align:center; text-anchor:middle; font-size:16px; font-style:italic; color:black; overflow:visible; fill:#009100; stroke-width:0.5px;">Median</text>
<text x="48" y="44.8" style="font-family:Georgia; text-align:center; text-anchor:middle; font-size:16px; font-style:italic; color:black; overflow:visible; fill:#009100; stroke-width:0.5px;">Mode</text>
<path d="M 149.3,165.6 V 27.7" style="fill:none; stroke:black; stroke-width:0.5;" />
<path d="M 297.7,155.1 H 0.2" style="fill:none; stroke:black; stroke-width:0.73;" />
</svg>
